<svg width="100" height="100" viewBox="0 0 100 100" fill="none" xmlns="http://www.w3.org/2000/svg">
<path d="M98.1024 31.1921L52.3993 0.723273C50.8394 -0.236691 49.1745 -0.24548 47.6003 0.723273L1.89726 31.1921C0.725389 31.9732 0 33.3685 0 34.7634V65.2321C0 66.6272 0.725389 68.0223 1.89746 68.8036L47.6005 99.2767C49.1605 100.237 50.8253 100.245 52.3995 99.2767L98.1025 68.8036C99.2744 68.0225 100 66.6272 100 65.2321V34.7634C99.9998 33.3685 99.2744 31.9732 98.1024 31.1921V31.1921ZM54.2968 12.3301L87.9463 34.7634L72.9352 44.8082L54.2968 32.3638V12.3301ZM45.703 12.3301V32.3638L27.0646 44.8082L12.0535 34.7634L45.703 12.3301ZM8.59373 42.7992L19.3638 49.9979L8.59373 57.1965V42.7992ZM45.703 87.6656L12.0535 65.2323L27.0646 55.1875L45.703 67.6319V87.6656ZM49.9999 60.1541L34.8212 49.9979L49.9999 39.8416L65.1786 49.9979L49.9999 60.1541ZM54.2968 87.6656V67.6319L72.9352 55.1875L87.9463 65.2323L54.2968 87.6656ZM91.4061 57.1965L80.636 49.9979L91.4061 42.7992V57.1965Z" fill="#C4C4C4"/>
</svg>
