<svg width="100" height="100" viewBox="0 0 100 100" fill="none" xmlns="http://www.w3.org/2000/svg">
<path d="M33.3333 96.6668C25.97 96.6668 20 90.6968 20 83.3335C20 75.9702 25.97 70.0002 33.3333 70.0002H42.8567C44.96 70.0002 46.6667 71.7068 46.6667 73.8102V83.3335C46.6667 90.6968 40.6967 96.6668 33.3333 96.6668ZM66.6667 30.0002H57.1433C55.04 30.0002 53.3333 28.2935 53.3333 26.1902V7.1435C53.3333 5.04016 55.04 3.3335 57.1433 3.3335H66.6667C74.03 3.3335 80 9.3035 80 16.6668C80 24.0302 74.03 30.0002 66.6667 30.0002ZM33.3333 3.3335H42.8567C44.96 3.3335 46.6667 5.04016 46.6667 7.1435V26.1902C46.6667 28.2935 44.96 30.0002 42.8567 30.0002H33.3333C25.97 30.0002 20 24.0302 20 16.6668C20 9.3035 25.97 3.3335 33.3333 3.3335ZM33.3333 36.6668H42.8567C44.96 36.6668 46.6667 38.3735 46.6667 40.4768V59.5235C46.6667 61.6268 44.96 63.3335 42.8567 63.3335H33.3333C25.97 63.3335 20 57.3635 20 50.0002C20 42.6368 25.97 36.6668 33.3333 36.6668ZM66.6667 36.6668C63.1304 36.6668 59.7391 38.0716 57.2386 40.5721C54.7381 43.0726 53.3333 46.4639 53.3333 50.0002C53.3333 53.5364 54.7381 56.9278 57.2386 59.4282C59.7391 61.9287 63.1304 63.3335 66.6667 63.3335C70.2029 63.3335 73.5943 61.9287 76.0948 59.4282C78.5952 56.9278 80 53.5364 80 50.0002C80 46.4639 78.5952 43.0726 76.0948 40.5721C73.5943 38.0716 70.2029 36.6668 66.6667 36.6668V36.6668Z" fill="black"/>
</svg>
