<svg width="100" height="100" viewBox="0 0 100 100" fill="none" xmlns="http://www.w3.org/2000/svg">
<path d="M33.4476 79.8096C33.4476 80.2165 32.9839 80.542 32.3992 80.542C31.7339 80.603 31.2702 80.2775 31.2702 79.8096C31.2702 79.4027 31.7339 79.0772 32.3186 79.0772C32.9234 79.0161 33.4476 79.3417 33.4476 79.8096ZM27.1774 78.8941C27.0363 79.3009 27.4395 79.7688 28.0444 79.8909C28.5686 80.0944 29.1734 79.8909 29.2944 79.4841C29.4153 79.0772 29.0323 78.6092 28.4274 78.4261C27.9032 78.2836 27.3186 78.4872 27.1774 78.8941ZM36.0887 78.5481C35.504 78.6906 35.1008 79.0772 35.1613 79.5451C35.2218 79.952 35.746 80.2165 36.3508 80.0741C36.9355 79.9317 37.3387 79.5451 37.2782 79.1382C37.2177 78.7517 36.6734 78.4872 36.0887 78.5481ZM49.3548 0.585938C21.3911 0.585938 0 22.0093 0 50.2279C0 72.7905 14.0726 92.098 34.1734 98.8932C36.754 99.3611 37.6613 97.754 37.6613 96.4315C37.6613 95.1701 37.6008 88.2121 37.6008 83.9396C37.6008 83.9396 23.4879 86.9914 20.5242 77.8768C20.5242 77.8768 18.2258 71.9563 14.9194 70.4305C14.9194 70.4305 10.3024 67.2364 15.2419 67.2974C15.2419 67.2974 20.2621 67.7043 23.0242 72.5464C27.4395 80.3996 34.8387 78.1412 37.7218 76.7985C38.1855 73.5433 39.496 71.285 40.9476 69.9422C29.6774 68.6808 18.3065 67.0329 18.3065 47.4609C18.3065 41.866 19.8387 39.0584 23.0645 35.4777C22.5403 34.1553 20.8266 28.7028 23.5887 21.6634C27.8024 20.3409 37.5 27.1566 37.5 27.1566C41.5323 26.0173 45.8669 25.4273 50.1613 25.4273C54.4556 25.4273 58.7903 26.0173 62.8226 27.1566C62.8226 27.1566 72.5202 20.3206 76.7339 21.6634C79.496 28.7231 77.7823 34.1553 77.2581 35.4777C80.4839 39.0787 82.4597 41.8864 82.4597 47.4609C82.4597 67.094 70.5847 68.6605 59.3145 69.9422C61.1694 71.5495 62.7419 74.6012 62.7419 79.3823C62.7419 86.2386 62.6814 94.7225 62.6814 96.3908C62.6814 97.7132 63.6089 99.3205 66.1694 98.8525C86.3307 92.098 100 72.7905 100 50.2279C100 22.0093 77.3186 0.585938 49.3548 0.585938ZM19.5968 70.756C19.3347 70.9595 19.3952 71.4274 19.7379 71.814C20.0605 72.1395 20.5242 72.2819 20.7863 72.0174C21.0484 71.814 20.9879 71.346 20.6452 70.9595C20.3226 70.634 19.8589 70.4916 19.5968 70.756ZM17.4194 69.1081C17.2782 69.3726 17.4798 69.6981 17.8831 69.9016C18.2056 70.105 18.6089 70.044 18.75 69.7592C18.8911 69.4946 18.6895 69.1691 18.2863 68.9656C17.8831 68.8435 17.5605 68.9046 17.4194 69.1081ZM23.9516 76.3509C23.629 76.6154 23.75 77.2257 24.2137 77.6123C24.6774 78.0802 25.2621 78.1412 25.5242 77.8157C25.7863 77.5512 25.6653 76.9409 25.2621 76.5544C24.8186 76.0865 24.2137 76.0254 23.9516 76.3509ZM21.6532 73.3602C21.3306 73.5636 21.3306 74.0926 21.6532 74.5605C21.9758 75.0284 22.5202 75.232 22.7823 75.0284C23.1048 74.764 23.1048 74.235 22.7823 73.7671C22.5 73.2992 21.9758 73.0957 21.6532 73.3602Z" fill="black"/>
</svg>
