<svg width="100" height="100" viewBox="0 0 100 100" fill="none" xmlns="http://www.w3.org/2000/svg">
<path d="M68.75 50C68.75 54.3359 68.5156 58.5156 68.1055 62.5H31.8945C31.4844 58.5156 31.0742 54.3359 31.0742 50C31.0742 45.6641 31.4844 41.4844 31.8945 37.5H68.1055C68.5156 41.4844 68.75 45.6641 68.75 50ZM98.418 37.5C99.4531 41.5039 100 45.6836 100 50C100 54.3164 99.4531 58.4961 98.418 62.5H74.375C74.7852 58.4766 75 54.1211 75 50C75 45.7031 74.7852 41.5234 74.375 37.5H98.418ZM96.3672 31.25H73.5742C71.6211 18.7773 67.7539 8.32422 62.7734 1.64883C78.0859 5.68164 90.5078 16.7852 96.3672 31.25ZM67.2461 31.25H32.7539C33.9453 24.1406 35.7812 17.8477 38.0273 12.7637C40.0781 8.15234 42.3633 4.80664 44.5703 2.69727C46.7578 0.620703 48.5742 0 50 0C51.4258 0 53.2422 0.620703 55.4297 2.69727C57.6367 4.80664 59.9219 8.15234 61.9727 12.7637C64.2187 17.8477 66.0547 24.1406 67.2461 31.25ZM3.63477 31.25C9.49023 16.7852 21.9141 5.68164 37.2266 1.64883C32.2461 8.32422 28.3789 18.7773 26.4258 31.25H3.63477ZM25.625 37.5C25.2148 41.5234 24.8242 45.7031 24.8242 50C24.8242 54.1211 25.2148 58.4766 25.625 62.5H1.5752C0.546875 58.4961 0 54.3164 0 50C0 45.6836 0.546875 41.5039 1.5752 37.5H25.625ZM38.0273 87.2266C35.7812 82.1484 33.9453 75.8594 32.7539 68.75H67.2461C66.0547 75.8594 64.2187 82.1484 61.9727 87.2266C59.9219 91.8555 57.6367 95.1953 55.4297 97.3047C53.2422 99.375 51.4258 100 49.8242 100C48.5742 100 46.7578 99.375 44.5703 97.3047C42.3633 95.1953 40.0781 91.8555 38.0273 87.2266ZM37.2266 98.3594C21.9141 94.3164 9.49023 83.2227 3.63477 68.75H26.4258C28.3789 81.2305 32.2461 91.6797 37.2266 98.3594ZM62.7734 98.3594C67.7539 91.6797 71.6211 81.2305 73.5742 68.75H96.3672C90.5078 83.2227 78.0859 94.3164 62.7734 98.3594Z" fill="black"/>
</svg>
